<svg width="1025" height="303" viewBox="0 0 1025 303" fill="none" xmlns="http://www.w3.org/2000/svg">
<path d="M148.883 282L162.383 245.4L0.682804 171.9V129L138.683 66.3V107.1L55.8828 143.4C51.8828 145.2 47.6828 146.7 43.2828 147.9C38.8828 149.1 35.3828 149.9 32.7828 150.3C35.3828 150.5 38.8828 151.2 43.2828 152.4C47.6828 153.6 51.8828 155.1 55.8828 156.9L175.283 210.3L252.383 -1.28746e-05H298.883L195.383 282H148.883ZM349.766 303V261H397.766C405.966 261 412.266 258.7 416.666 254.1C421.066 249.7 423.266 243.5 423.266 235.5V126H358.766V84H468.266V237C468.266 257.4 462.266 273.5 450.266 285.3C438.266 297.1 421.866 303 401.066 303H349.766ZM444.266 57.9C436.066 57.9 429.466 55.8 424.466 51.6C419.666 47.4 417.266 41.7 417.266 34.5C417.266 27.3 419.666 21.6 424.466 17.4C429.466 13.2 436.066 11.1 444.266 11.1C452.466 11.1 458.966 13.2 463.766 17.4C468.766 21.6 471.266 27.3 471.266 34.5C471.266 41.7 468.766 47.4 463.766 51.6C458.966 55.8 452.466 57.9 444.266 57.9ZM525.448 303V84H568.948V115.5H579.448L568.948 126C568.948 111.8 572.848 100.8 580.648 93C588.448 85 599.148 81 612.748 81C629.348 81 642.648 86.9 652.648 98.7C662.648 110.3 667.648 125.9 667.648 145.5V187.5C667.648 200.5 665.348 211.9 660.748 221.7C656.348 231.3 650.048 238.8 641.848 244.2C633.648 249.4 623.948 252 612.748 252C599.148 252 588.448 248.1 580.648 240.3C572.848 232.3 568.948 221.2 568.948 207L579.448 217.5H568.948L570.448 258V303H525.448ZM596.548 213C604.948 213 611.348 210.7 615.748 206.1C620.348 201.3 622.648 194.6 622.648 186V147C622.648 138.2 620.348 131.5 615.748 126.9C611.348 122.3 604.948 120 596.548 120C588.348 120 581.948 122.4 577.348 127.2C572.748 131.8 570.448 138.4 570.448 147V186C570.448 194.6 572.748 201.3 577.348 206.1C581.948 210.7 588.348 213 596.548 213ZM886.414 234.3V193.5L969.214 157.2C973.214 155.4 977.414 153.9 981.814 152.7C986.214 151.5 989.714 150.7 992.314 150.3C989.714 149.9 986.214 149.2 981.814 148.2C977.414 147 973.214 145.5 969.214 143.7L886.414 107.4V66.3L1024.41 128.7V171.6L886.414 234.3Z" fill="#FF3FF7"/>
</svg>
